<?xml version="1.0" encoding="utf-8"?>
<!-- Generator: Adobe Illustrator 27.4.0, SVG Export Plug-In . SVG Version: 6.00 Build 0)  -->
<svg version="1.1" id="Capa_1" xmlns="http://www.w3.org/2000/svg" xmlns:xlink="http://www.w3.org/1999/xlink" x="0px" y="0px"
	 viewBox="0 0 31.6 32" style="enable-background:new 0 0 31.6 32;" xml:space="preserve">
<style type="text/css">
	.st0{fill:#3662E3;}
</style>
<path class="st0" d="M0,0.6C0,0.3,0.3,0,0.6,0h4.3c0.3,0,0.6,0.3,0.6,0.6v4.3c0,0.3-0.3,0.6-0.6,0.6H0.6C0.3,5.5,0,5.2,0,4.9V0.6z"
	/>
<path class="st0" d="M26.2,0.6c0-0.3,0.3-0.6,0.6-0.6H31c0.3,0,0.6,0.3,0.6,0.6v4.3c0,0.3-0.3,0.6-0.6,0.6h-4.3
	c-0.3,0-0.6-0.3-0.6-0.6V0.6z"/>
<path class="st0" d="M6.5,7.2c0-0.3,0.3-0.6,0.6-0.6h4.3c0.3,0,0.6,0.3,0.6,0.6v4.3c0,0.3-0.3,0.6-0.6,0.6H7.1
	c-0.3,0-0.6-0.3-0.6-0.6V7.2z"/>
<path class="st0" d="M19.6,7.2c0-0.3,0.3-0.6,0.6-0.6h4.3c0.3,0,0.6,0.3,0.6,0.6v4.3c0,0.3-0.3,0.6-0.6,0.6h-4.3
	c-0.3,0-0.6-0.3-0.6-0.6V7.2z"/>
<path class="st0" d="M6.5,13.8c0-0.3,0.3-0.6,0.6-0.6h4.3c0.3,0,0.6,0.3,0.6,0.6v4.3c0,0.3-0.3,0.6-0.6,0.6H7.1
	c-0.3,0-0.6-0.3-0.6-0.6V13.8z"/>
<path class="st0" d="M13.1,13.8c0-0.3,0.3-0.6,0.6-0.6h4.3c0.3,0,0.6,0.3,0.6,0.6v4.3c0,0.3-0.3,0.6-0.6,0.6h-4.3
	c-0.3,0-0.6-0.3-0.6-0.6V13.8z"/>
<path class="st0" d="M0,20.5c0-0.3,0.3-0.6,0.6-0.6h4.3c0.3,0,0.6,0.3,0.6,0.6v4.3c0,0.3-0.3,0.6-0.6,0.6H0.6
	c-0.3,0-0.6-0.3-0.6-0.6V20.5z"/>
<path class="st0" d="M13.1,20.5c0-0.3,0.3-0.6,0.6-0.6h4.3c0.3,0,0.6,0.3,0.6,0.6v4.3c0,0.3-0.3,0.6-0.6,0.6h-4.3
	c-0.3,0-0.6-0.3-0.6-0.6V20.5z"/>
<path class="st0" d="M19.6,20.5c0-0.3,0.3-0.6,0.6-0.6h4.3c0.3,0,0.6,0.3,0.6,0.6v4.3c0,0.3-0.3,0.6-0.6,0.6h-4.3
	c-0.3,0-0.6-0.3-0.6-0.6V20.5z"/>
<path class="st0" d="M6.5,27.1c0-0.3,0.3-0.6,0.6-0.6h4.3c0.3,0,0.6,0.3,0.6,0.6v4.3c0,0.3-0.3,0.6-0.6,0.6H7.1
	c-0.3,0-0.6-0.3-0.6-0.6V27.1z"/>
<path class="st0" d="M19.6,27.1c0-0.3,0.3-0.6,0.6-0.6h4.3c0.3,0,0.6,0.3,0.6,0.6v4.3c0,0.3-0.3,0.6-0.6,0.6h-4.3
	c-0.3,0-0.6-0.3-0.6-0.6V27.1z"/>
<path class="st0" d="M26.2,27.1c0-0.3,0.3-0.6,0.6-0.6H31c0.3,0,0.6,0.3,0.6,0.6v4.3c0,0.3-0.3,0.6-0.6,0.6h-4.3
	c-0.3,0-0.6-0.3-0.6-0.6V27.1z"/>
</svg>
